<?xml version="1.0" standalone="no"?>
<!DOCTYPE svg PUBLIC "-//W3C//DTD SVG 20010904//EN"
 "http://www.w3.org/TR/2001/REC-SVG-20010904/DTD/svg10.dtd">
<svg version="1.0" xmlns="http://www.w3.org/2000/svg"
 width="192.000000pt" height="192.000000pt" viewBox="0 0 192.000000 192.000000"
 preserveAspectRatio="xMidYMid meet">

<g transform="translate(0.000000,192.000000) scale(0.100000,-0.100000)"
fill="#000000" stroke="none">
<path d="M390 1587 c-37 -19 -87 -135 -160 -377 -90 -296 -146 -721 -105 -799
18 -36 69 -79 102 -87 18 -5 31 0 49 18 25 25 36 73 79 368 45 310 62 380 115
488 41 83 60 110 101 142 59 47 104 58 146 37 44 -23 57 -55 51 -134 -13 -167
-96 -276 -225 -298 -39 -6 -43 -10 -49 -42 -10 -54 16 -100 74 -126 40 -18 63
-22 152 -21 163 2 266 35 364 117 41 34 50 38 57 24 24 -42 65 -78 116 -102
51 -24 64 -26 157 -23 89 3 109 7 168 35 130 61 228 188 228 295 0 77 -17 73
-130 -35 -126 -122 -178 -139 -272 -91 -39 20 -48 43 -48 127 0 93 30 195 71
242 42 48 62 51 115 20 24 -14 54 -25 66 -23 36 5 62 52 62 114 1 49 -2 58
-28 81 -27 23 -36 25 -105 21 -102 -4 -174 -40 -262 -127 -74 -75 -120 -157
-146 -266 -21 -89 -32 -105 -107 -161 -80 -61 -168 -102 -236 -109 l-55 -6 40
22 c55 30 145 124 177 185 84 157 72 330 -28 412 -89 74 -271 67 -355 -14 -16
-15 -30 -26 -32 -23 -2 2 -16 26 -32 52 -15 26 -40 54 -56 62 -33 18 -28 18
-59 2z"/>
</g>
</svg>
